<svg width="450" height="442" viewBox="0 0 450 442" fill="none" xmlns="http://www.w3.org/2000/svg">
<path fill-rule="evenodd" clip-rule="evenodd" d="M198.863 20.125C198.808 20.125 198.772 20.0687 198.794 20.0186C201.636 13.6219 205.307 7.48337 209.743 1.69779C211.676 -0.82273 215.435 1.30707 214.725 4.40266C212.725 13.1154 211.65 21.951 211.515 30.8184C212.214 54.5122 226.334 65.4253 246.977 94.5391C274.525 133.507 264.302 171.287 231.33 203.35C229.107 205.511 225.701 203.172 226.753 200.256C238.13 168.726 242.598 146.704 232.997 121.895C229.72 113.986 225.443 106.355 220.229 99.1167C206.902 80.0371 192.269 64.29 193.714 41.2554C194.185 34.0892 195.942 27.0114 198.933 20.2317C198.955 20.1815 198.918 20.125 198.863 20.125ZM50.6436 192.172C50.7112 192.025 50.7683 191.872 50.8186 191.718C51.2364 190.437 52.0123 189.245 53.09 188.229C53.204 188.121 53.3109 188.01 53.4108 187.889C60.8076 178.959 77.8404 171.408 101.54 166.097C122.668 161.429 144.317 158.378 166.187 156.984C167.902 156.875 169.354 158.238 169.291 159.955C169.162 163.471 168.793 166.978 168.186 170.463C167.953 171.801 166.816 172.781 165.461 172.871C146.282 174.143 127.298 176.84 108.763 180.928C89.9163 185.261 76.9434 190.249 73.2457 195.123C73.0242 195.415 72.89 195.761 72.8156 196.119L72.3638 198.297C72.2751 198.724 72.2669 199.17 72.4289 199.575C74.5761 204.946 88.0443 210.484 108.763 215.242C142.644 222.199 177.573 225.501 212.587 225.057C247.515 225.53 282.362 222.278 316.177 215.389C337.049 210.606 350.594 205.001 352.595 199.602C352.726 199.248 352.728 198.864 352.671 198.492L352.409 196.803C352.363 196.5 352.275 196.205 352.118 195.942C349.044 190.798 335.886 185.57 316.177 181.038C305.688 178.708 295.036 176.858 284.276 175.497C282.235 175.239 281.026 173.062 281.82 171.164C283.053 168.219 284.115 165.231 285.003 162.209C285.426 160.771 286.811 159.818 288.298 160.006C300.002 161.479 311.583 163.501 322.981 166.06C348.518 171.956 366.365 180.232 372.703 190.084C373.452 191.013 373.973 192.043 374.24 193.123C374.905 194.77 375.251 196.486 375.266 198.213C375.266 198.653 375.266 199.056 375.266 199.459C375.936 204.461 376.427 209.394 376.788 214.182C376.929 216.049 378.714 217.35 380.543 216.948C402.117 212.211 418.629 214.466 430.439 221.175C436.033 224.477 440.654 228.689 443.983 233.525C447.313 238.36 449.274 243.704 449.732 249.19C450.96 260.921 447.956 272.687 441.064 283.138C426.818 305.602 395.512 325.556 347.461 326.049C346.493 326.058 345.577 326.527 345.004 327.307C344.558 327.914 344.107 328.516 343.652 329.114C342.269 330.928 343.245 333.607 345.478 334.071C362.864 337.684 379.583 343.064 395.21 350.081C413.57 358.943 423.962 369.673 423.962 381.722C423.962 400.032 398.519 415.962 357.371 426.473C320.092 436.067 268.553 442 211.981 442C155.409 442 103.917 436.067 66.5441 426.473C25.4433 415.962 0 400.179 0 381.722C0 369.673 10.3917 358.943 28.7519 350.081C44.8408 342.864 62.0782 337.372 80.0043 333.746C82.2325 333.295 83.2256 330.636 81.8495 328.827C67.5785 310.062 57.4365 289.527 51.8652 268.086C48.5159 255.843 46.7517 243.365 46.5995 230.843C46.4196 220.214 47.3064 209.591 49.2515 199.072C49.2851 198.891 49.3023 198.706 49.3023 198.522V198.104C49.32 196.081 49.7738 194.075 50.6436 192.172ZM69.2971 219.694C69.3295 219.66 69.3866 219.683 69.3865 219.73C69.379 223.349 69.061 226.968 69.107 230.586C69.2432 241.934 70.804 253.244 73.767 264.351C86.6284 310.713 115.054 342.354 149.258 359.566C168.403 369.44 190.827 374.661 213.727 374.577C236.626 374.492 258.986 369.105 278.013 359.09C311.564 341.915 339.104 310.457 350.941 264.754C353.586 254.124 354.959 243.322 355.041 232.491V231.209C354.995 230.88 354.995 230.549 355.041 230.22C355.041 228.264 355.041 226.283 354.985 224.285C354.926 222.212 352.774 220.932 350.861 221.729C342.049 225.398 332.747 228.295 323.121 230.367C286.984 237.851 249.72 241.436 212.354 241.023C174.974 241.445 137.695 237.873 101.54 230.403C90.2567 227.975 79.4234 224.403 69.3131 219.777C69.2806 219.762 69.2725 219.72 69.2971 219.694ZM377.424 236.409C377.441 236.409 377.455 236.424 377.455 236.441C377.085 247.101 375.526 257.714 372.796 268.16C369.763 280.085 365.414 291.777 359.799 303.103C358.743 305.232 360.405 307.725 362.763 307.422C392.276 303.63 411.581 290.182 421.026 275.301C426.023 267.802 428.251 259.353 427.457 250.911C427.287 247.937 426.309 245.025 424.589 242.373C422.869 239.72 420.447 237.387 417.485 235.53C409.451 231.041 396.233 230.408 377.416 236.348C377.382 236.359 377.388 236.409 377.424 236.409ZM327.649 348.666C326.733 348.517 325.802 348.807 325.12 349.436C314.98 358.796 303.199 366.979 290.128 373.738C267.501 385.577 240.953 391.943 213.77 392.047C186.587 392.151 159.962 385.989 137.189 374.324C123.413 367.405 111.023 358.918 100.424 349.141C99.7433 348.513 98.8143 348.223 97.8999 348.371C77.7672 351.637 58.3796 357.288 40.4018 365.132C28.9383 370.662 22.461 376.338 22.461 381.722C22.461 391.646 41.9395 401.644 73.7204 409.7C108.95 418.746 157.926 424.349 212.214 424.349C266.502 424.349 315.432 418.782 350.661 409.7C382.209 401.644 401.921 391.646 401.921 381.722C401.921 376.338 395.443 370.735 383.98 365.132C366.363 357.445 347.371 351.894 327.649 348.666ZM169.55 59.8645C171.12 57.0304 175.366 58.6774 175.167 61.9108C174.237 77.0547 178.72 83.9919 187.19 93.5137C199.073 106.844 209.092 117.244 212.028 130.318C215.384 145.306 208.843 161.178 198.589 174.197C196.7 176.596 193.117 174.595 193.635 171.586C205.414 103.049 140.631 112.097 169.55 59.8645Z" fill="#FAF6E9"/>
</svg>
